<svg xmlns="http://www.w3.org/2000/svg" xmlns:xlink="http://www.w3.org/1999/xlink" version="1.1" id="Camada_2" x="0px" y="0px" viewBox="0 0 693.8 197.2" style="enable-background:new 0 0 693.8 197.2;" xml:space="preserve">
<style type="text/css">
	.st0{fill:#66BB6A;}
	.st1{fill:#388E3C;}
	.st2{fill:#FAFAFA;}
	.st3{fill:#E0E0E0;}
	.st4{fill:#FFFFFF;}
	.st5{fill:url(#SVGID_1_);}
</style>
<path class="st0" d="M0,27.9v18.9c0,52.5,0.1,88.8,30.7,119.3c11.8,11.8,40.5,31.1,40.5,31.1V10.4C41.3,10.4,11.4,23.8,0,27.9z"/>
<path class="st1" d="M142.3,27.7c-14.2-4.4-41.3-17.3-71.2-17.3v186.8c0,0,28.9-19.3,40.6-31.1c30.6-30.6,30.5-62.8,30.5-112.3  L142.3,27.7L142.3,27.7z"/>
<g>
	<path class="st2" d="M56.9,155.1c6.7,7.4,14.4,14.6,14.4,14.6s7.9-7.7,14.6-15.3c-3.9-3-8.8-4.8-14.1-4.8   C66.1,149.6,60.9,151.7,56.9,155.1z"/>
	<path class="st2" d="M46.9,142.2c0.9,1.5,1.9,3,2.9,4.4c0.5,0.7,1,1.3,1.5,2c5.5-4.6,12.7-7.4,20.5-7.4c7.4,0,14.2,2.5,19.6,6.7   c0.4-0.5,0.7-0.9,1-1.3c1.2-1.7,2.3-3.4,3.3-5.2c-6.7-5-14.9-8-23.9-8C62.4,133.4,53.7,136.7,46.9,142.2z"/>
	<path class="st2" d="M71.8,116.4c-11.9,0-23,3.7-32.1,10c0.9,2.7,1.9,5.3,3.1,7.9c8.1-6.1,18.2-9.7,29.1-9.7   c10.4,0,20,3.3,27.9,8.9c1.1-2.5,2.1-5.2,2.9-7.9C93.8,119.8,83.2,116.4,71.8,116.4z"/>
	<circle class="st2" cx="70.7" cy="79.5" r="23.5"/>
</g>
<path class="st3" d="M142.3,28V13.5c0-5.2-7.2-12.5-13.7-12.5H12.5C6,1,0,8.3,0,13.5V28H142.3L142.3,28z"/>
<circle class="st4" cx="17.6" cy="16.2" r="4.2"/>
<circle class="st4" cx="32.9" cy="16.2" r="4.2"/>
<linearGradient id="SVGID_1_" gradientUnits="userSpaceOnUse" x1="71.15" y1="25.8904" x2="71.15" y2="36.35">
	<stop offset="0" style="stop-color:#263238;stop-opacity:0.35"/>
	<stop offset="0.42" style="stop-color:#263238;stop-opacity:0.15"/>
	<stop offset="0.89" style="stop-color:#263238;stop-opacity:2.000000e-02"/>
	<stop offset="1" style="stop-color:#263238;stop-opacity:0"/>
</linearGradient>
<rect y="27.9" class="st5" width="142.3" height="12.7"/>
<g>
	<g>
		<path class="st3" d="M229.8,162.1c0,5.2-1.9,9.4-5.7,12.5c-3.9,3.1-8.6,4.6-14.1,4.6c-4.9,0-9.3-1.4-13-4.3    c-3.8-2.9-6.4-6.8-7.8-11.8l7.3-3c0.5,1.8,1.2,3.4,2.1,4.8c0.9,1.4,1.9,2.7,3.1,3.7c1.2,1,2.5,1.8,3.9,2.4c1.4,0.6,3,0.9,4.6,0.9    c3.5,0,6.3-0.9,8.6-2.7c2.2-1.8,3.3-4.2,3.3-7.2c0-2.5-0.9-4.6-2.7-6.4c-1.7-1.7-4.9-3.4-9.6-5c-4.8-1.7-7.7-2.9-8.9-3.5    c-6.3-3.2-9.5-7.9-9.5-14.2c0-4.4,1.7-8.1,5.2-11.2s7.9-4.6,13-4.6c4.5,0,8.5,1.2,11.8,3.5s5.5,5.1,6.6,8.6l-7.1,3    c-0.7-2.2-2-4.1-3.9-5.5c-2-1.5-4.4-2.2-7.2-2.2c-3,0-5.5,0.8-7.6,2.5c-2,1.6-3.1,3.6-3.1,6.1c0,2,0.8,3.8,2.4,5.3    c1.8,1.5,5.6,3.3,11.5,5.3c6,2,10.3,4.6,12.9,7.5C228.5,154.2,229.8,157.8,229.8,162.1z"/>
		<path class="st3" d="M253.1,136c5.6,0,10.1,1.5,13.4,4.5s4.9,7.2,4.9,12.4V178h-7.3v-5.6h-0.3c-3.2,4.6-7.4,7-12.6,7    c-4.5,0-8.2-1.3-11.2-4s-4.5-6-4.5-10c0-4.2,1.6-7.6,4.8-10c3.2-2.5,7.4-3.7,12.7-3.7c4.5,0,8.3,0.8,11.2,2.5v-1.7    c0-2.7-1.1-4.9-3.2-6.8c-2.1-1.9-4.6-2.8-7.4-2.8c-4.3,0-7.6,1.8-10.1,5.4l-6.7-4.2C240.4,138.6,245.8,136,253.1,136z     M243.2,165.5c0,2,0.8,3.7,2.5,5s3.7,2,5.9,2c3.2,0,6.1-1.2,8.6-3.6c2.5-2.4,3.8-5.2,3.8-8.4c-2.4-1.9-5.7-2.8-10-2.8    c-3.1,0-5.7,0.7-7.8,2.2C244.3,161.5,243.2,163.3,243.2,165.5z"/>
		<path class="st3" d="M297.9,117.9c2.8,0,5,0.5,6.8,1.4l-2.1,6.7c-1.3-0.7-2.8-1-4.5-1c-1.9,0-3.4,0.7-4.6,2s-1.8,3-1.8,5.2v5.1    h10.6v7h-10.6V178h-7.6v-33.7h-7.6v-7h7.6v-5.9c0-4,1.3-7.3,3.9-9.8C290.6,119.1,293.9,117.9,297.9,117.9z"/>
		<path class="st3" d="M325.5,179.3c-6,0-10.9-2-14.8-6.1s-5.8-9.3-5.8-15.5s1.9-11.4,5.6-15.5c3.8-4.1,8.6-6.2,14.4-6.2    c6,0,10.8,2,14.4,5.9s5.4,9.4,5.4,16.4l-0.1,0.8h-32c0.1,4,1.4,7.2,4,9.6c2.5,2.4,5.6,3.7,9.1,3.7c4.9,0,8.7-2.4,11.5-7.3l6.8,3.3    c-1.8,3.4-4.4,6.1-7.6,8.1C333.3,178.3,329.6,179.3,325.5,179.3z M313.3,152.7h23.3c-0.2-2.8-1.4-5.2-3.4-7    c-2.1-1.9-4.9-2.8-8.3-2.8c-2.9,0-5.4,0.9-7.4,2.7C315.3,147.4,314,149.8,313.3,152.7z"/>
		<path class="st3" d="M371.3,178v-59.4h21.5c4.7,0,8.7,1.6,12.1,4.6s5.1,6.9,5.1,11.5c0,5.9-2.7,10-8.1,12.4v0.3    c3,1,5.5,2.7,7.3,5.2s2.7,5.3,2.7,8.4c0,4.9-1.8,8.9-5.3,12.1c-3.4,3.2-7.7,4.8-12.7,4.8h-22.6V178z M379,125.8V144h13.9    c2.7,0,5-0.9,6.8-2.7c1.8-1.9,2.7-4,2.7-6.4c0-2.3-0.9-4.4-2.7-6.3c-1.8-1.8-4-2.7-6.6-2.7H379V125.8z M379,151.2v19.5h15.4    c2.8,0,5.1-1,7.1-2.9c1.9-1.9,2.8-4.2,2.8-6.9c0-2.6-1-4.9-2.9-6.8c-1.9-1.9-4.4-2.9-7.3-2.9L379,151.2L379,151.2z"/>
		<path class="st3" d="M426.9,178h-7.6v-40.7h7.3v6.6h0.3c0.8-2.2,2.4-4,4.8-5.5s4.8-2.3,7.1-2.3c2.2,0,4.1,0.3,5.6,1l-2.3,7.4    c-0.9-0.4-2.4-0.6-4.5-0.6c-2.9,0-5.4,1.2-7.5,3.5s-3.2,5-3.2,8.1L426.9,178L426.9,178z"/>
		<path class="st3" d="M444.6,157.6c0-6.3,2-11.4,5.9-15.5c4-4.1,9-6.1,15-6.1s11,2,14.9,6.1c4,4.1,6,9.3,6,15.5    c0,6.3-2,11.5-6,15.5c-3.9,4.1-8.9,6.1-14.9,6.1s-11-2-15-6.1C446.6,169.1,444.6,163.9,444.6,157.6z M452.3,157.6    c0,4.4,1.3,7.9,3.8,10.6c2.5,2.7,5.7,4.1,9.5,4.1s6.9-1.4,9.5-4.1c2.5-2.7,3.8-6.3,3.8-10.6s-1.3-7.8-3.8-10.5    c-2.6-2.8-5.8-4.2-9.5-4.2s-6.9,1.4-9.5,4.2C453.5,149.8,452.3,153.3,452.3,157.6z"/>
		<path class="st3" d="M550.2,137.3L537.1,178h-7.8l-10.1-31.2l-10,31.2h-7.7l-13.1-40.7h8l9,30.7h0.1l10-30.7h7.9l10,30.7h0.1    l9-30.7H550.2z"/>
		<path class="st3" d="M586.3,166.7c0,3.5-1.6,6.5-4.6,9c-3.1,2.4-7,3.7-11.7,3.7c-4.1,0-7.7-1.1-10.8-3.2c-3.1-2.1-5.3-4.9-6.6-8.4    l6.8-2.9c1,2.4,2.4,4.3,4.4,5.7c1.9,1.4,4,2,6.3,2c2.4,0,4.5-0.5,6.1-1.6s2.4-2.3,2.4-3.7c0-2.6-2-4.5-6-5.7l-7-1.7    c-7.9-2-11.9-5.8-11.9-11.5c0-3.7,1.5-6.7,4.5-8.9s6.9-3.4,11.6-3.4c3.6,0,6.8,0.9,9.8,2.6c2.9,1.7,4.9,4,6.1,6.9l-6.8,2.8    c-0.8-1.7-2-3.1-3.8-4c-1.7-1-3.7-1.5-5.9-1.5c-2,0-3.8,0.5-5.4,1.5c-1.6,1-2.4,2.2-2.4,3.7c0,2.3,2.2,4,6.6,5l6.1,1.6    C582.3,156.5,586.3,160.5,586.3,166.7z"/>
		<path class="st3" d="M602.4,123.3c0,1.5-0.5,2.8-1.6,3.8c-1.1,1.1-2.3,1.6-3.8,1.6s-2.8-0.5-3.8-1.6c-1.1-1.1-1.6-2.3-1.6-3.8    s0.5-2.8,1.6-3.8c1.1-1.1,2.3-1.6,3.8-1.6s2.8,0.5,3.8,1.6C601.9,120.5,602.4,121.8,602.4,123.3z M600.9,137.3V178h-7.6v-40.7    H600.9z"/>
		<path class="st3" d="M610.8,137.3h7.3v5.6h0.3c1.2-2,2.9-3.7,5.4-5c2.4-1.3,4.9-2,7.5-2c5,0,8.8,1.4,11.5,4.3    c2.7,2.9,4,6.9,4,12.2V178h-7.6v-25.1c-0.2-6.6-3.5-10-10-10c-3,0-5.6,1.2-7.6,3.7s-3.1,5.4-3.1,8.8V178h-7.6v-40.7H610.8z"/>
		<path class="st3" d="M673.4,197.2c-2.3,0-4.4-0.3-6.4-0.9s-3.8-1.4-5.4-2.4c-1.6-1.1-3-2.3-4.2-3.7s-2-3-2.7-4.8l7.2-3    c0.8,2.4,2.3,4.3,4.3,5.7s4.4,2.2,7.1,2.2c4.2,0,7.4-1.2,9.7-3.7s3.5-5.9,3.5-10.3v-3.9h-0.3c-1.4,2.2-3.4,3.9-5.9,5.1    c-2.5,1.2-5.1,1.9-8,1.9c-5.3,0-9.9-2.1-13.7-6.2c-3.8-4.3-5.6-9.4-5.6-15.4s1.9-11.2,5.6-15.4c3.8-4.2,8.4-6.3,13.7-6.3    c2.9,0,5.5,0.6,8,1.9c2.5,1.2,4.4,2.9,5.9,5.1h0.3v-5.6h7.3v38.9c0,6.5-1.9,11.6-5.6,15.4C684.6,195.4,679.6,197.2,673.4,197.2z     M673.7,172.3c3.8,0,6.8-1.4,9.2-4.1c2.5-2.7,3.7-6.3,3.7-10.6s-1.2-7.8-3.7-10.5c-2.4-2.8-5.5-4.2-9.2-4.2s-6.7,1.4-9.2,4.2    s-3.7,6.3-3.7,10.5c0,4.3,1.2,7.8,3.7,10.5C666.9,171,670,172.3,673.7,172.3z"/>
	</g>
	<g>
		<path class="st3" d="M224.3,84.6c-6.2,0-12.1-1.6-17.6-4.7s-9.9-7.3-13-12.7c-3.1-5.3-4.7-11.1-4.7-17.3s1.6-11.9,4.7-17.2    c3.2-5.4,7.5-9.7,13-12.8c5.5-3.2,11.4-4.7,17.6-4.7c9.2,0,17.1,3.2,23.8,9.6l-6.7,6.7c-4.9-4.5-10.6-6.8-17.1-6.8    c-7,0-12.9,2.5-17.7,7.4s-7.2,10.8-7.2,17.9s2.4,13,7.2,17.9s10.7,7.4,17.7,7.4c6,0,11.1-1.6,15.3-4.9s6.7-8,7.5-14h-22.7v-9.5    h31.9c0.3,1.7,0.5,3.7,0.5,5.9c0,9.6-3.1,17.3-9.2,23.1C241.5,81.6,233.7,84.6,224.3,84.6z M305.1,62.2c0,6.3-2.2,11.6-6.5,15.9    c-4.3,4.3-9.6,6.4-15.9,6.4s-11.6-2.1-15.9-6.4s-6.5-9.7-6.5-15.9c0-6.4,2.1-11.7,6.4-15.9c4.3-4.3,9.6-6.4,16-6.4    c6.3,0,11.6,2.1,15.9,6.4C302.9,50.5,305.1,55.8,305.1,62.2z M270,62.2c0,3.8,1.2,7.1,3.6,9.7s5.4,3.9,9,3.9    c3.5,0,6.5-1.3,8.9-3.9c2.5-2.7,3.7-5.9,3.7-9.7c0-4-1.2-7.2-3.6-9.7c-2.4-2.6-5.4-3.9-9-3.9s-6.6,1.3-9,3.9    C271.2,55,270,58.2,270,62.2z M354,62.2c0,6.3-2.2,11.6-6.5,15.9c-4.3,4.3-9.6,6.4-15.9,6.4s-11.6-2.1-15.9-6.4s-6.5-9.7-6.5-15.9    c0-6.4,2.1-11.7,6.4-15.9c4.3-4.3,9.6-6.4,16-6.4c6.3,0,11.6,2.1,15.9,6.4C351.9,50.5,354,55.8,354,62.2z M319,62.2    c0,3.8,1.2,7.1,3.6,9.7s5.4,3.9,9,3.9c3.5,0,6.5-1.3,8.9-3.9c2.5-2.7,3.7-5.9,3.7-9.7c0-4-1.2-7.2-3.6-9.7c-2.4-2.6-5.4-3.9-9-3.9    s-6.6,1.3-9,3.9C320.2,55,319,58.2,319,62.2z M379.7,104.6c-2.3,0-4.4-0.3-6.4-1s-3.9-1.6-5.6-2.7c-1.7-1.2-3.2-2.5-4.5-4.2    c-1.3-1.6-2.4-3.4-3.2-5.4l8.6-3.6c1,2.4,2.5,4.3,4.5,5.8s4.2,2.2,6.8,2.2c8,0,11.9-4.7,11.9-14.1v-2.3h-0.3    c-2.8,3.4-6.8,5.1-11.8,5.1c-5.7,0-10.7-2.2-15.1-6.5c-4.2-4.4-6.4-9.7-6.4-15.8c0-6.2,2.1-11.4,6.4-15.8s9.3-6.6,15.1-6.6    c5,0,9,1.7,11.8,5h0.3v-3.6h9.3v40.2c0,7.5-1.9,13.2-5.6,17.2C391.6,102.6,386.4,104.6,379.7,104.6z M367.9,62.3    c0,3.8,1.2,7,3.6,9.6s5.4,3.9,8.9,3.9c3.3,0,6.2-1.3,8.5-3.8c2.3-2.7,3.5-5.9,3.5-9.7s-1.2-7.1-3.5-9.7c-2.3-2.6-5.1-3.9-8.5-3.9    s-6.3,1.3-8.8,4C369.2,55.2,367.9,58.4,367.9,62.3z M407.8,17.5h9.8v65.7h-9.8V17.5z M444.5,84.6c-6.3,0-11.6-2.1-15.8-6.4    c-4.2-4.3-6.4-9.6-6.4-15.9c0-6.4,2-11.7,6-16c4.1-4.2,9.1-6.4,15.1-6.4c2.2,0,4.3,0.3,6.3,1s3.8,1.7,5.4,2.9    c1.6,1.3,3.1,2.8,4.4,4.5c1.3,1.8,2.3,3.7,3.1,5.8l1,2.5L433.7,69c2.3,4.5,5.9,6.8,10.8,6.8c4.6,0,8.2-2.1,11-6.2l7.6,5.1    C458.7,81.3,452.4,84.6,444.5,84.6z M443.8,48.5c-3,0-5.8,1.2-8.3,3.7c-2.4,2.4-3.5,5.5-3.4,9.3l20-8.3c-0.6-1.4-1.6-2.6-3.1-3.4    C447.4,48.9,445.7,48.5,443.8,48.5z"/>
	</g>
</g>
</svg>