<svg id="wmlogo" xmlns="http://www.w3.org/2000/svg" viewBox="0 0 50 58.725"><title>vwlogo</title><path d="M46.26,13.142A24.99,24.99,0,0,0,6,10.032c-.952,1.121-.952,1.121.051,2.107.017.017.017.051.034.1a5.812,5.812,0,0,0-3.739,3.552,24.186,24.186,0,0,0,.595,21.942,24.979,24.979,0,0,0,41.436,4.1c.833-1.037.833-1.037-.2-1.852-.034-.034-.034-.085-.068-.153a6.781,6.781,0,0,0,3.977-4.266A24.213,24.213,0,0,0,46.26,13.142ZM43.1,33.129c-.051.119-.136.238-.272.51-.255-1.258-.493-2.345-.714-3.45-.731-3.722-1.479-7.444-2.193-11.166-.119-.629-.323-.935-1.019-.867a18.75,18.75,0,0,1-1.955.017,1.282,1.282,0,0,0-1.343.934q-1.631,4.386-3.3,8.736c-.085.2-.085.442-.357.595-.935-2.447-1.852-4.878-2.77-7.308-.306-.816-.629-1.632-.935-2.464-.119-.323-.272-.527-.663-.51-.8.034-1.581.017-2.379,0a.481.481,0,0,0-.578.459c-.425,2.26-.833,4.5-1.292,6.764-.068.374.068.459.374.459.816,0,1.649.017,2.464,0,.833-.017.374-.816.7-1.156.2.085.221.289.289.476,1.02,2.7,2.057,5.388,3.06,8.107a1.222,1.222,0,0,0,1.359.935c2.227-.051,2.21-.017,3.008-2.158.765-2.091,1.564-4.182,2.516-6.272.136.663.255,1.326.408,1.988a79.982,79.982,0,0,0,1.886,8.448,6.407,6.407,0,0,0,2.669,3.3,2.474,2.474,0,0,0,1.631.357,2.049,2.049,0,0,1-3.161-.153c-.68-.884-.867-.9-1.631-.1A19.405,19.405,0,0,1,5.571,25.668,18.617,18.617,0,0,1,7.1,18.7c.238,1.155.442,2.073.612,2.991.748,3.841,1.512,7.665,2.226,11.506.136.731.357,1.122,1.173.986a6.579,6.579,0,0,1,1.53,0,1.5,1.5,0,0,0,1.716-1.156c1.054-2.923,2.159-5.846,3.246-8.753.034-.1.085-.187.221-.493,1.224,3.247,2.4,6.306,3.5,9.382.272.731.56,1.071,1.41,1.037,2.329-.068,2.312-.034,2.7-2.294.289-1.615.56-3.23.917-4.844.136-.629-.051-.748-.611-.7-.34.034-.68,0-1.02,0-1.428,0-1.428,0-1.938,1.325-.748-1.971-1.444-3.875-2.158-5.761-.374-1-.765-2.006-1.139-3.025a.987.987,0,0,0-1.054-.748c-2.413,0-2.4-.017-3.246,2.277-.748,2.04-1.513,4.062-2.447,6.1-.2-.969-.391-1.938-.6-2.907-.442-2.192-.867-4.385-1.36-6.56a6.555,6.555,0,0,0-2.7-4.266,2.413,2.413,0,0,0-1.6-.561,2.062,2.062,0,0,1,2.855,0c.986,1.19.969,1.156,2.023.17C16.806,7.3,23.2,5.545,30.351,7.618c7.275,2.108,11.83,7.088,13.58,14.5A18.385,18.385,0,0,1,43.1,33.129Z" transform="translate(0 -1.275)"/><path d="M21.581,53.983a.68.68,0,0,0-.458.153.5.5,0,0,0-.17.408.492.492,0,0,0,.17.391.764.764,0,0,0,.917,0,.492.492,0,0,0,.17-.391.527.527,0,0,0-.17-.408A.781.781,0,0,0,21.581,53.983Z" transform="translate(0 -1.275)"/><path d="M35.96,53.983a.68.68,0,0,0-.459.153.5.5,0,0,0-.17.408.492.492,0,0,0,.17.391.765.765,0,0,0,.918,0,.492.492,0,0,0,.17-.391.527.527,0,0,0-.17-.408A.781.781,0,0,0,35.96,53.983Z" transform="translate(0 -1.275)"/><path d="M41.433,53.983a.68.68,0,0,0-.459.153.5.5,0,0,0-.17.408.492.492,0,0,0,.17.391.765.765,0,0,0,.918,0,.492.492,0,0,0,.17-.391.527.527,0,0,0-.17-.408A.781.781,0,0,0,41.433,53.983Z" transform="translate(0 -1.275)"/><polygon points="2.597 55.852 1.611 53.32 0.302 53.32 0.302 57.229 1.39 57.229 1.39 55.053 2.138 57.229 3.039 57.229 3.77 55.07 3.77 57.229 4.857 57.229 4.857 53.32 3.549 53.32 2.597 55.852"/><path d="M7.526,55.8a.98.98,0,0,0-.34-.324,1.141,1.141,0,0,0-.561-.119,1.316,1.316,0,0,0-.68.187,1.207,1.207,0,0,0-.476.561,1.872,1.872,0,0,0-.17.833,1.948,1.948,0,0,0,.17.85,1.407,1.407,0,0,0,.476.56,1.173,1.173,0,0,0,.68.187,1.121,1.121,0,0,0,.544-.136.982.982,0,0,0,.357-.34v.425H8.614v-3.11H7.526Zm-.153,1.614a.5.5,0,0,1-.408.17.527.527,0,0,1-.408-.17.622.622,0,0,1-.153-.476.7.7,0,0,1,.153-.476.5.5,0,0,1,.408-.17.553.553,0,0,1,.408.17.751.751,0,0,1,0,.952Z" transform="translate(0 -1.275)"/><path d="M10.33,55.938v-.544H9.242V58.5H10.33V57.145a.561.561,0,0,1,.17-.476.888.888,0,0,1,.527-.136h.306V55.377a1.07,1.07,0,0,0-.561.153A1.442,1.442,0,0,0,10.33,55.938Z" transform="translate(0 -1.275)"/><polygon points="14.953 54.119 13.661 54.119 12.795 55.342 12.795 53.133 11.707 53.133 11.707 57.229 12.795 57.229 12.795 55.954 13.661 57.229 14.97 57.229 13.729 55.682 14.953 54.119"/><path d="M17.5,55.547a1.872,1.872,0,0,0-1.631,0,1.438,1.438,0,0,0-.561.544,1.873,1.873,0,0,0,0,1.7,1.486,1.486,0,0,0,.561.56,1.607,1.607,0,0,0,.816.187,1.81,1.81,0,0,0,.7-.136,1.526,1.526,0,0,0,.527-.391,1.211,1.211,0,0,0,.272-.577H17.027a.389.389,0,0,1-.391.238.423.423,0,0,1-.323-.119.5.5,0,0,1-.136-.374h2.056a1.287,1.287,0,0,0,.017-.255,1.635,1.635,0,0,0-.2-.833A1.292,1.292,0,0,0,17.5,55.547Zm-1.308,1.088a.656.656,0,0,1,.17-.323.553.553,0,0,1,.663.017.4.4,0,0,1,.136.306Z" transform="translate(0 -1.275)"/><path d="M20.018,57.519a.273.273,0,0,1-.051-.187V56.3h.561v-.9h-.561v-.748H18.879v.748h-.374v.9h.374v1.02a1.042,1.042,0,0,0,1.19,1.172h.476V57.57h-.323A.3.3,0,0,1,20.018,57.519Z" transform="translate(0 -1.275)"/><rect x="21.038" y="54.119" width="1.088" height="3.11"/><path d="M24.76,55.36a1.242,1.242,0,0,0-.561.136,1.092,1.092,0,0,0-.391.34v-.442H22.72V58.5h1.088V56.839a.669.669,0,0,1,.136-.425.475.475,0,0,1,.374-.153.5.5,0,0,1,.374.153.636.636,0,0,1,.136.425V58.5h1.088V56.686a1.364,1.364,0,0,0-.323-.969A1.009,1.009,0,0,0,24.76,55.36Z" transform="translate(0 -1.275)"/><path d="M28.567,55.8a.971.971,0,0,0-.34-.324,1.116,1.116,0,0,0-.544-.119,1.316,1.316,0,0,0-.68.187,1.207,1.207,0,0,0-.476.561,1.872,1.872,0,0,0-.17.833,1.948,1.948,0,0,0,.17.85,1.407,1.407,0,0,0,.476.56,1.173,1.173,0,0,0,.68.187,1.121,1.121,0,0,0,.544-.136.982.982,0,0,0,.357-.34v.391q0,.612-.561.612a.67.67,0,0,1-.34-.085.414.414,0,0,1-.17-.238H26.442a1.243,1.243,0,0,0,.493.918,1.834,1.834,0,0,0,1.156.34,1.744,1.744,0,0,0,.884-.2,1.164,1.164,0,0,0,.51-.561,1.7,1.7,0,0,0,.17-.782V55.377H28.567Zm-.153,1.614a.5.5,0,0,1-.408.17.527.527,0,0,1-.408-.17.622.622,0,0,1-.153-.476.7.7,0,0,1,.153-.476.5.5,0,0,1,.408-.17.553.553,0,0,1,.408.17.7.7,0,0,1,.17.476A.63.63,0,0,1,28.414,57.417Z" transform="translate(0 -1.275)"/><path d="M33.972,54.85a2.165,2.165,0,0,0-1.071-.238H31.354V58.5H32.9a2.17,2.17,0,0,0,1.071-.255,1.751,1.751,0,0,0,.713-.7,1.956,1.956,0,0,0,.255-1,2.065,2.065,0,0,0-.255-1.02A1.713,1.713,0,0,0,33.972,54.85Zm-.425,2.431a1.05,1.05,0,0,1-.748.255h-.374V55.53H32.8a1.05,1.05,0,0,1,.748.255,1.165,1.165,0,0,1,0,1.5Z" transform="translate(0 -1.275)"/><rect x="35.416" y="54.119" width="1.088" height="3.11"/><path d="M39.155,55.8a.971.971,0,0,0-.34-.324,1.11,1.11,0,0,0-.543-.119,1.316,1.316,0,0,0-.68.187,1.207,1.207,0,0,0-.476.561,1.872,1.872,0,0,0-.17.833,1.948,1.948,0,0,0,.17.85,1.407,1.407,0,0,0,.476.56,1.173,1.173,0,0,0,.68.187,1.115,1.115,0,0,0,.543-.136.982.982,0,0,0,.357-.34v.391q0,.612-.56.612a.67.67,0,0,1-.34-.085.414.414,0,0,1-.17-.238H37.031a1.243,1.243,0,0,0,.493.918A1.834,1.834,0,0,0,38.68,60a1.743,1.743,0,0,0,.883-.2,1.164,1.164,0,0,0,.51-.561,1.7,1.7,0,0,0,.17-.782V55.377H39.155ZM39,57.417a.5.5,0,0,1-.407.17.527.527,0,0,1-.408-.17.622.622,0,0,1-.153-.476.7.7,0,0,1,.153-.476.5.5,0,0,1,.408-.17.552.552,0,0,1,.407.17.7.7,0,0,1,.17.476A.63.63,0,0,1,39,57.417Z" transform="translate(0 -1.275)"/><rect x="40.872" y="54.119" width="1.088" height="3.11"/><path d="M43.9,57.519a.273.273,0,0,1-.051-.187V56.3h.561v-.9h-.561v-.748H42.759v.748h-.374v.9h.374v1.02a1.041,1.041,0,0,0,1.189,1.172h.476V57.57H44.1A.3.3,0,0,1,43.9,57.519Z" transform="translate(0 -1.275)"/><path d="M46.957,55.8a.98.98,0,0,0-.34-.324,1.141,1.141,0,0,0-.561-.119,1.316,1.316,0,0,0-.68.187,1.207,1.207,0,0,0-.476.561,1.872,1.872,0,0,0-.17.833,1.948,1.948,0,0,0,.17.85,1.407,1.407,0,0,0,.476.56,1.173,1.173,0,0,0,.68.187A1.121,1.121,0,0,0,46.6,58.4a.982.982,0,0,0,.357-.34v.425h1.087v-3.11H46.957ZM46.8,57.417a.5.5,0,0,1-.408.17.527.527,0,0,1-.408-.17.622.622,0,0,1-.153-.476.7.7,0,0,1,.153-.476.5.5,0,0,1,.408-.17.553.553,0,0,1,.408.17.751.751,0,0,1,0,.952Z" transform="translate(0 -1.275)"/><rect x="48.673" y="53.133" width="1.088" height="4.096"/></svg>